<svg xmlns="http://www.w3.org/2000/svg" viewBox="0 0 15 15"><defs><style>.cls-1{fill:#fff;}</style></defs><title>lich</title><g id="Layer_2" data-name="Layer 2"><g id="Layer_1-2" data-name="Layer 1"><path class="cls-1" d="M3.75,2.81h0a.7.7,0,0,0,.7-.7V.7a.7.7,0,0,0-.7-.7h0A.7.7,0,0,0,3,.7V2.11a.7.7,0,0,0,.7.7Zm0,0"/><path class="cls-1" d="M11,2.81h0a.7.7,0,0,0,.7-.7V.7a.7.7,0,0,0-.7-.7h0a.7.7,0,0,0-.7.7V2.11a.7.7,0,0,0,.7.7Zm0,0"/><path class="cls-1" d="M13.13,1.88h-.66v.23a1.41,1.41,0,0,1-1.41,1.41h0A1.41,1.41,0,0,1,9.61,2.11V1.88H5.2v.23A1.41,1.41,0,0,1,3.79,3.52h0A1.41,1.41,0,0,1,2.34,2.11V1.88H1.88A1.87,1.87,0,0,0,0,3.75v9.38A1.87,1.87,0,0,0,1.88,15H13.13A1.87,1.87,0,0,0,15,13.13V3.75a1.87,1.87,0,0,0-1.87-1.88Zm.94,11.25a.94.94,0,0,1-.94.94H1.88a.94.94,0,0,1-.94-.94V5.62H14.06Zm0,0"/><path class="cls-1" d="M4.9,8A1.15,1.15,0,1,1,3.75,6.82,1.15,1.15,0,0,1,4.9,8Zm0,0"/><path class="cls-1" d="M8.65,8A1.15,1.15,0,1,1,7.5,6.82,1.15,1.15,0,0,1,8.65,8Zm0,0"/><path class="cls-1" d="M12.4,8a1.15,1.15,0,1,1-1.15-1.15A1.15,1.15,0,0,1,12.4,8Zm0,0"/><path class="cls-1" d="M4.9,11.72a1.15,1.15,0,1,1-1.15-1.15A1.15,1.15,0,0,1,4.9,11.72Zm0,0"/><path class="cls-1" d="M8.65,11.72A1.15,1.15,0,1,1,7.5,10.57a1.15,1.15,0,0,1,1.15,1.15Zm0,0"/><path class="cls-1" d="M12.4,11.72a1.15,1.15,0,1,1-1.15-1.15,1.15,1.15,0,0,1,1.15,1.15Zm0,0"/></g></g></svg>