<svg xmlns="http://www.w3.org/2000/svg" viewBox="0 0 21.2 20.42"><defs><style>.cls-1{fill:#652d90;}</style></defs><title>luong_xu_ly_hover</title><g id="Layer_2" data-name="Layer 2"><g id="Layer_1-2" data-name="Layer 1"><path class="cls-1" d="M14.32,3.71A3.71,3.71,0,1,1,10.61,0,3.71,3.71,0,0,1,14.32,3.71Z"/><path class="cls-1" d="M3.71,11.94A3.71,3.71,0,1,1,0,15.69,3.72,3.72,0,0,1,3.71,11.94Z"/><path class="cls-1" d="M17.49,11.94a3.71,3.71,0,1,1-3.71,3.67A3.7,3.7,0,0,1,17.49,11.94Z"/><path class="cls-1" d="M15.87,4.67a8.79,8.79,0,0,1,3.43,5.95c-.4-.08-.76-.17-1.13-.23s-.51-.07-.65-.59a7,7,0,0,0-2-3.37A.31.31,0,0,1,15.38,6C15.56,5.58,15.7,5.13,15.87,4.67Z"/><path class="cls-1" d="M5.34,4.7c.19.49.37,1,.54,1.44a.28.28,0,0,1-.09.23A7,7,0,0,0,4,9c-.14.37-.23.77-.36,1.15a.27.27,0,0,1-.15.16L2,10.59C1.68,9.22,3.76,5.59,5.34,4.7Z"/><path class="cls-1" d="M14,19.73a8.79,8.79,0,0,1-6.83,0c.34-.42.66-.83,1-1.22a.23.23,0,0,1,.2,0,7.2,7.2,0,0,0,3.87.16c.19,0,.38-.11.57-.16a.25.25,0,0,1,.2,0C13.36,18.9,13.68,19.31,14,19.73Z"/></g></g></svg>