<svg xmlns="http://www.w3.org/2000/svg" width="464" height="391" viewBox="0 0 464 391">
  <g fill="none" fill-rule="evenodd">
    <polygon fill="#32526E" points="10.899 235.958 15.116 235.958 15.116 135.801 10.899 135.801"/>
    <polygon fill="#5B758B" points="0 139.977 9.072 134.739 9.072 240.982 178.964 142.895 178.964 150.751 198.33 129.889 178.964 131.388 178.964 139.244 13.289 234.897 13.289 132.304 22.361 127.067 11.18 116.753"/>
    <polygon fill="#263E53" points="178.965 150.751 180.791 151.812 180.791 143.956 178.965 142.895"/>
    <polygon fill="#5B758B" points="10.899 242.044 9.072 240.982 9.072 136.855 10.899 135.801"/>
    <polygon fill="#5B758B" points="0 139.977 1.827 141.038 13.007 117.814 11.18 116.753"/>
    <polygon fill="#5B758B" points="200.157 130.95 198.33 129.889 178.965 131.388 180.792 132.449"/>
    <polygon fill="#32526E" points="200.157 130.95 180.792 132.449 180.792 140.305 15.116 235.958 15.116 133.366 24.188 128.128 13.007 117.814 1.827 141.038 10.899 135.8 10.899 242.044 180.792 143.956 180.792 151.812"/>
    <polygon fill="#263E53" points="180.791 132.449 178.965 131.387 178.965 139.244 180.791 140.305"/>
    <polygon fill="#85C1E9" points="157.018 76.178 133.946 62.858 157.017 49.538 180.089 62.858"/>
    <polygon fill="#3497DA" points="157.016 158.032 133.945 144.711 133.945 62.858 157.016 76.179"/>
    <polygon fill="#2771A3" points="180.088 144.711 157.016 158.032 157.016 76.179 180.088 62.858"/>
    <polygon fill="#58D58D" points="115.254 116.52 92.183 103.2 115.254 89.88 138.325 103.2"/>
    <polygon fill="#2ECB70" points="115.252 181.804 92.181 168.484 92.181 103.2 115.252 116.52"/>
    <polygon fill="#2771A3" points="138.324 168.484 115.252 181.804 115.252 116.52 138.324 103.2"/>
    <polygon fill="#F4D03F" points="31.744 206.936 8.672 193.616 31.743 180.296 54.815 193.616"/>
    <polygon fill="#F1C40F" points="31.742 230.447 8.671 217.126 8.671 193.616 31.742 206.936"/>
    <polygon fill="#2771A3" points="54.814 217.126 31.742 230.447 31.742 206.937 54.814 193.616"/>
    <polygon fill="#32526E" points="10.899 233.636 15.116 233.636 15.116 133.366 10.899 133.366"/>
    <polygon fill="#5B758B" points="9.072 240.982 10.868 240.982 10.868 180.37 9.072 180.37"/>
    <polygon fill="#EC6F63" points="96.568 147.593 73.494 160.913 61.994 154.274 50.428 147.593 73.494 134.273 84.994 140.912"/>
    <polygon fill="#E74B3C" points="73.496 206.441 50.425 193.121 50.425 147.592 73.496 160.913"/>
    <polygon fill="#2771A3" points="96.568 147.593 96.568 193.124 73.494 206.444 73.494 160.913"/>
    <polygon fill="#FFFFFF" points="178.752 46.661 15.114 141.137 15.114 140.302 178.752 45.826"/>
    <polygon fill="#FFFFFF" points="178.752 60.689 15.114 155.165 15.114 154.33 178.752 59.854"/>
    <polygon fill="#FFFFFF" points="178.752 74.716 15.114 169.193 15.114 168.358 178.752 73.881"/>
    <polygon fill="#FFFFFF" points="178.752 88.745 15.114 183.221 15.114 182.386 178.752 87.91"/>
    <polygon fill="#FFFFFF" points="178.752 102.773 15.114 197.249 15.114 196.414 178.752 101.938"/>
    <polygon fill="#FFFFFF" points="178.752 116.801 15.114 211.277 15.114 210.442 178.752 115.966"/>
    <polygon fill="#FFFFFF" points="178.752 130.829 15.114 225.304 15.114 224.47 178.752 129.994"/>
    <polygon fill="#FFFFFF" points="26.02 228.528 25.297 228.945 25.297 125.71 26.02 125.292"/>
    <polygon fill="#FFFFFF" points="41.858 219.384 41.135 219.802 41.135 116.566 41.858 116.149"/>
    <polygon fill="#FFFFFF" points="57.694 210.241 56.972 210.658 56.972 107.422 57.694 107.005"/>
    <polygon fill="#FFFFFF" points="73.532 201.097 72.809 201.514 72.809 98.279 73.532 97.862"/>
    <polygon fill="#FFFFFF" points="89.369 191.954 88.646 192.371 88.646 89.136 89.369 88.718"/>
    <polygon fill="#FFFFFF" points="105.206 182.81 104.483 183.228 104.483 79.992 105.206 79.575"/>
    <polygon fill="#FFFFFF" points="121.043 173.667 120.32 174.084 120.32 70.849 121.043 70.431"/>
    <polygon fill="#FFFFFF" points="136.88 164.523 136.157 164.941 136.157 61.705 136.88 61.287"/>
    <polygon fill="#FFFFFF" points="152.717 155.379 151.994 155.797 151.994 52.561 152.717 52.144"/>
    <polygon fill="#FFFFFF" points="168.554 146.236 167.831 146.653 167.831 43.418 168.554 43"/>
    <polygon fill="#B5930B" points="54.815 193.616 54.815 217.127 31.741 230.447 31.741 206.936"/>
    <polygon fill="#F4D03F" points="54.815 193.616 31.741 206.936 20.205 200.281 43.24 186.935"/>
    <polygon fill="#F1C40F" points="31.738 206.936 31.738 230.445 20.205 223.781 20.205 200.281"/>
    <polygon fill="#AD382D" points="96.568 147.592 96.568 193.124 73.494 206.444 73.494 160.912"/>
    <polygon fill="#EC6F63" points="96.568 147.592 73.494 160.912 61.958 154.256 84.994 140.911"/>
    <polygon fill="#E74B3C" points="73.491 160.912 73.491 206.442 61.958 199.778 61.958 154.256"/>
    <polygon fill="#239854" points="138.325 103.2 138.325 168.484 115.251 181.804 115.251 116.52"/>
    <polygon fill="#58D58D" points="138.325 103.2 115.251 116.52 103.715 109.864 126.75 96.519"/>
    <polygon fill="#2ECB70" points="115.248 116.52 115.248 181.802 103.715 175.138 103.715 109.864"/>
    <polygon fill="#2771A3" points="180.089 62.858 180.089 144.712 157.014 158.032 157.014 76.178"/>
    <polygon fill="#85C1E9" points="180.089 62.858 157.014 76.178 145.479 69.522 168.514 56.177"/>
    <polygon fill="#3497DA" points="157.012 76.178 157.012 158.03 145.479 151.366 145.479 69.522"/>
    <g transform="translate(28.042 .01)">
      <path fill="#000000" d="M154.220466,275.450316 L154.220466,283.098148 C154.220466,283.683972 153.832976,284.270816 153.057995,284.719489 L89.7390465,321.276125 C88.1890859,322.17347 85.6754986,322.17347 84.1306365,321.276125 L1.26892825,273.436387 C0.493947963,272.987715 0.106457819,272.40597 0.106457819,271.820146 L0.106457819,264.172314 C0.106457819,264.758138 0.493947963,265.339883 1.26892825,265.788556 L64.5929756,233.642169 C66.1378376,232.744314 68.651425,232.744314 70.2013855,233.642169 L92.4310833,246.475231 L153.057995,277.071657 C153.832976,276.622984 154.220466,276.03614 154.220466,275.450316 Z" style="mix-blend-mode:multiply" opacity=".4"/>
      <path fill="#32526E" d="M154.220466,273.450316 L154.220466,281.098148 C154.220466,281.683972 153.832976,282.270816 153.057995,282.719489 L89.7390465,319.276125 C88.1890859,320.17347 85.6754986,320.17347 84.1306365,319.276125 L1.26892825,271.436387 C0.493947963,270.987715 0.106457819,270.40597 0.106457819,269.820146 L0.106457819,262.172314 C0.106457819,262.758138 0.493947963,263.339883 1.26892825,263.788556 L64.5929756,231.642169 C66.1378376,230.744314 68.651425,230.744314 70.2013855,231.642169 L92.4310833,244.475231 L153.057995,275.071657 C153.832976,274.622984 154.220466,274.03614 154.220466,273.450316 Z"/>
      <path fill="#FFFFFF" d="M154.220466,273.450316 C154.220466,274.03614 153.832976,274.622984 153.057995,275.071657 L149.244276,277.274232 L89.7390465,311.628293 C88.1890859,312.525638 85.6754986,312.525638 84.1306365,311.628293 L30.1267469,280.450122 L92.4310833,244.475231 L99.0541057,240.651315 L153.057995,271.828466 C153.832976,272.277139 154.220466,272.863983 154.220466,273.450316"/>
      <path fill="#E74B3C" d="M142.26303,277.864747 L125.122709,287.760022 C123.487093,288.705294 121.012254,288.807775 119.595366,287.989457 L101.660691,277.635312 C100.243802,276.816994 100.421742,275.388379 102.057868,274.443617 L119.197679,264.547832 C120.833805,263.60307 123.308643,263.500589 124.725532,264.318907 L142.659697,274.673052 C144.076586,275.49137 143.898646,276.919985 142.26303,277.864747"/>
      <path fill="#E6E6E6" d="M70.2008757,223.991839 C68.6519348,223.097553 66.1403869,223.097553 64.591446,223.991839 L1.26892825,260.551534 C-0.280012615,261.445821 -0.280012615,262.89585 1.26892825,263.790136 L30.1247075,280.449663 L99.0566549,240.651876 L70.2008757,223.991839 Z"/>
      <polygon fill="#32526E" points="71.276 271.331 75.692 273.881 68.998 277.746 75.692 281.611 71.276 284.16 64.582 280.296 57.888 284.16 53.472 281.61 60.166 277.746 53.474 273.882 57.89 271.333 64.582 275.196"/>
      <path fill="#32526E" d="M111.718762 295.499066L94.5789514 305.394851C92.9428252 306.339613 90.4679869 306.442094 89.0510986 305.623776L71.116933 295.269632C69.7000447 294.451823 69.8779842 293.023208 71.5136005 292.078446L88.6534113 282.182662C90.2895375 281.2379 92.7643758 281.135419 94.1812641 281.953737L112.11543 292.307881C113.532828 293.126199 113.354888 294.554304 111.718762 295.499066M114.476162 261.821737L97.3358418 271.717522C95.7002255 272.662284 93.2253871 272.764765 91.8084988 271.946447L73.8738234 261.592302C72.4569351 260.773984 72.6348746 259.345879 74.2710008 258.401117L91.4108116 248.505332C93.0469377 247.56057 95.5217761 247.458089 96.9386644 248.276407L114.87283 258.630042C116.289718 259.44836 116.111779 260.876975 114.476162 261.821737"/>
      <polygon fill="#FFFFFF" points="81.259 297.654 85.674 300.203 103.478 289.924 99.063 287.375"/>
      <polygon fill="#FFFFFF" points="71.276 271.331 75.692 273.881 68.998 277.746 75.692 281.611 71.276 284.16 64.582 280.296 57.888 284.16 53.472 281.61 60.166 277.746 53.474 273.882 57.89 271.333 64.582 275.196"/>
      <polygon fill="#FFFFFF" points="115.908 282.388 120.325 284.938 138.127 274.66 133.71 272.11"/>
      <polygon fill="#FFFFFF" points="107.698 277.648 112.116 280.198 129.918 269.92 125.5 267.37"/>
      <polygon fill="#FFFFFF" points="107.495 258.001 107.495 262.222 98.03 262.221 98.03 267.687 92.223 267.687 92.223 262.221 82.758 262.221 82.757 258.001 90.719 258.001 92.223 258.001 92.223 252.536 98.03 252.536 98.03 258.001"/>
      <path fill="#3497DA" d="M69.4828972,230.806669 C67.6780089,230.311599 65.4535096,230.494128 63.9616725,231.355783 L14.2487264,260.057076 C12.3500247,261.153776 12.3535937,262.929092 14.2487264,264.023242 L29.3853151,272.762165 C30.8771522,273.62382 33.0985924,273.808388 34.9034807,273.313318 C35.3909025,273.179226 35.851302,272.995168 36.2545976,272.762165 L85.9670339,244.060362 C87.8621666,242.966722 87.8621666,241.188856 85.9670339,240.094706 L70.8309551,231.355783 C70.4276594,231.12278 69.9703191,230.940761 69.4828972,230.806669"/>
      <polygon fill="#32526E" points="65.12 244.214 65.12 242.937 60.915 240.509 56.493 240.509 62.909 244.214"/>
      <polygon fill="#32526E" points="56.493 240.055 60.915 240.055 65.12 237.627 65.12 235.074"/>
      <polygon fill="#32526E" points="70.113 240.509 65.907 242.937 65.907 244.214 68.118 244.214 72.323 241.786 72.323 240.509"/>
      <polygon fill="#32526E" points="77.316 244.668 73.111 247.096 73.111 249.65 81.738 244.668"/>
      <polygon fill="#32526E" points="73.11 240.509 73.11 241.786 77.316 244.214 81.738 244.214 75.321 240.509"/>
      <polygon fill="#32526E" points="53.005 251.208 53.005 249.932 48.8 247.504 44.378 247.503 50.795 251.208"/>
      <polygon fill="#32526E" points="44.378 247.049 48.8 247.049 53.005 244.621 53.005 242.068"/>
      <polygon fill="#32526E" points="57.998 247.504 53.792 249.932 53.792 251.209 56.004 251.209 60.208 248.78 60.208 247.504"/>
      <polygon fill="#32526E" points="65.201 251.663 60.996 254.091 60.996 256.644 69.623 251.663"/>
      <polygon fill="#32526E" points="60.996 247.504 60.996 248.78 65.201 251.209 69.623 251.209 63.207 247.504"/>
      <polygon fill="#32526E" points="53.799 243.349 53.799 244.626 58.005 247.054 62.427 247.054 56.01 243.349"/>
      <polygon fill="#32526E" points="45.883 254.044 48.094 254.044 48.094 252.767 41.677 249.063 41.678 251.616"/>
      <polygon fill="#32526E" points="48.881 254.498 48.881 255.775 53.087 258.203 57.509 258.203 51.092 254.498"/>
      <path fill="#32526E" d="M75.6920189,273.880991 L68.9981267,277.745696 L75.6920189,281.61091 L71.2761608,284.160187 L64.5817587,280.295483 L57.8878665,284.160187 L53.4720084,281.6104 L60.1659007,277.745696 L53.4740478,273.882011 L57.8899059,271.332734 L64.5817587,275.196418 L71.2761608,271.331204 L75.6920189,273.880991 Z M61.4400294,265.80743 L43.1499848,276.367047 C41.8325183,277.127751 41.8325183,278.363131 43.1499848,279.123835 L61.4405393,289.683961 C62.7605551,290.445685 64.898379,290.444665 66.2158455,289.683961 L84.5058901,279.124345 C85.8253961,278.362111 85.8253961,277.12928 84.5053803,276.367556 L66.2148258,265.80743 C64.8973593,265.046726 62.7600452,265.045706 61.4400294,265.80743 L61.4400294,265.80743 Z"/>
      <path fill="#000000" d="M315.935501,333.231715 L102.005761,209.719741 C97.945272,207.374916 98.4546176,203.279757 103.143248,200.573444 L198.644273,145.435636 C203.332904,142.728304 210.426013,142.434627 214.485992,144.778942 L428.415732,268.291426 C432.476221,270.635741 431.967385,274.7309 427.278754,277.437723 L331.777729,332.575021 C327.089099,335.281844 319.995989,335.57654 315.935501,333.231715" opacity=".4" style="mix-blend-mode:multiply"/>
      <path fill="#BCBEC0" d="M315.935501,329.231715 L102.005761,205.719741 C97.945272,203.374916 98.4546176,199.279757 103.143248,196.573444 L198.644273,141.435636 C203.332904,138.728304 210.426013,138.434627 214.485992,140.778942 L428.415732,264.291426 C432.476221,266.635741 431.967385,270.7309 427.278754,273.437723 L331.777729,328.575021 C327.089099,331.281844 319.995989,331.57654 315.935501,329.231715"/>
      <polygon fill="#FFFFFF" points="205.042 3.485 209.679 .675 211.656 2.443 205.452 4.875"/>
      <polygon fill="#FFFFFF" points="433.418 250.779 428.691 253.666 427.584 250.363 430.831 247.115"/>
      <path fill="#FFFFFF" d="M427.774589,123.919756 L214.93543,1.03694402 C210.573616,-1.48123206 207.038279,1.19194008 207.038279,7.00735138 L207.038279,112.713643 C207.038279,118.529564 210.573616,125.285149 214.93543,127.803325 L427.774589,250.686137 C432.136402,253.204313 435.67225,250.531141 435.67225,244.71573 L435.67225,139.009438 C435.67225,133.193517 432.136402,126.437932 427.774589,123.919756"/>
      <path fill="#7D8B98" d="M315.935501,321.583883 L102.005761,198.07191 C97.945272,195.727084 98.4546176,191.632435 103.143248,188.925103 L198.644273,133.787804 C203.332904,131.080472 210.426013,130.786795 214.485992,133.131111 L428.415732,256.643594 C432.476221,258.98791 431.967385,263.083069 427.278754,265.789891 L331.777729,320.927189 C327.089099,323.634012 319.995989,323.928709 315.935501,321.583883"/>
      <path fill="#FFFFFF" d="M315.935501,321.583883 L102.005761,198.07191 C97.945272,195.727084 98.4546176,191.632435 103.143248,188.925103 L198.644273,133.787804 C203.332904,131.080472 210.426013,130.786795 214.485992,133.131111 L428.415732,256.643594 C432.476221,258.98791 431.967385,263.083069 427.278754,265.789891 L331.777729,320.927189 C327.089099,323.634012 319.995989,323.928709 315.935501,321.583883"/>
      <polygon fill="#32526E" points="204.475 151.88 193.212 145.377 199.162 141.942 210.425 148.445"/>
      <polygon fill="#32526E" points="195.517 157.702 183.691 150.874 192.022 146.064 203.848 152.892"/>
      <polygon fill="#32526E" points="189.657 165.312 174.171 156.371 182.501 151.561 197.987 160.502"/>
      <polygon fill="#32526E" points="184.923 173.572 164.65 161.867 172.981 157.058 193.254 168.762"/>
      <polygon fill="#32526E" points="181.034 182.32 155.13 167.365 163.46 162.555 189.364 177.51"/>
      <polygon fill="#32526E" points="161.025 181.761 145.609 172.861 153.939 168.051 169.355 176.952"/>
      <polygon fill="#32526E" points="208.751 165.342 196.925 158.514 205.256 153.705 217.081 160.532"/>
      <polygon fill="#32526E" points="202.891 172.952 191.065 166.124 199.396 161.315 211.221 168.143"/>
      <polygon fill="#32526E" points="198.157 181.213 186.331 174.385 194.661 169.575 206.487 176.403"/>
      <polygon fill="#32526E" points="174.259 189.402 162.433 182.574 170.763 177.764 182.589 184.592"/>
      <polygon fill="#32526E" points="187.492 197.042 175.667 190.215 183.997 185.405 195.823 192.233"/>
      <polygon fill="#32526E" points="200.726 204.683 188.901 197.855 197.231 193.046 209.057 199.873"/>
      <polygon fill="#32526E" points="280.129 250.526 202.134 205.496 210.465 200.686 288.459 245.716"/>
      <polygon fill="#32526E" points="293.362 258.167 281.537 251.339 289.867 246.529 301.693 253.357"/>
      <polygon fill="#32526E" points="306.596 265.807 294.771 258.979 303.101 254.17 314.927 260.997"/>
      <polygon fill="#32526E" points="319.83 273.447 308.004 266.619 316.335 261.81 328.161 268.638"/>
      <polygon fill="#32526E" points="333.064 281.088 321.238 274.26 329.568 269.451 341.395 276.278"/>
      <polygon fill="#32526E" points="346.298 288.729 334.472 281.901 342.802 277.091 354.628 283.919"/>
      <polygon fill="#32526E" points="359.531 296.369 347.706 289.541 365.556 279.235 377.383 286.063"/>
      <polygon fill="#32526E" points="194.268 189.96 182.442 183.133 190.772 178.323 202.598 185.151"/>
      <polygon fill="#32526E" points="207.502 197.601 195.676 190.773 204.006 185.964 215.832 192.791"/>
      <polygon fill="#32526E" points="220.735 205.242 208.909 198.414 217.24 193.604 229.066 200.432"/>
      <polygon fill="#32526E" points="233.969 212.882 222.143 206.054 230.474 201.245 242.3 208.072"/>
      <polygon fill="#32526E" points="247.203 220.522 235.377 213.695 243.708 208.885 255.533 215.713"/>
      <polygon fill="#32526E" points="260.436 228.163 248.611 221.335 256.941 216.526 268.767 223.353"/>
      <polygon fill="#32526E" points="273.67 235.804 261.845 228.976 270.175 224.166 282.001 230.994"/>
      <polygon fill="#32526E" points="286.904 243.444 275.079 236.617 283.409 231.807 295.235 238.635"/>
      <polygon fill="#32526E" points="300.138 251.085 288.312 244.257 296.642 239.447 308.469 246.275"/>
      <polygon fill="#32526E" points="316.187 260.351 301.545 251.898 309.876 247.088 324.518 255.541"/>
      <polygon fill="#32526E" points="329.421 267.991 317.595 261.163 325.926 256.354 337.752 263.182"/>
      <polygon fill="#32526E" points="342.655 275.632 330.829 268.804 339.16 263.995 350.985 270.822"/>
      <polygon fill="#32526E" points="355.888 283.273 344.063 276.445 352.393 271.635 364.219 278.463"/>
      <polygon fill="#32526E" points="211.391 188.853 199.565 182.025 207.896 177.216 219.721 184.043"/>
      <polygon fill="#32526E" points="224.625 196.493 212.798 189.666 221.129 184.856 232.955 191.684"/>
      <polygon fill="#32526E" points="237.858 204.134 226.032 197.306 234.363 192.497 246.189 199.324"/>
      <polygon fill="#32526E" points="251.092 211.775 239.266 204.947 247.597 200.137 259.422 206.965"/>
      <polygon fill="#32526E" points="264.326 219.415 252.5 212.587 260.831 207.778 272.656 214.605"/>
      <polygon fill="#32526E" points="277.559 227.055 265.734 220.228 274.064 215.419 285.89 222.246"/>
      <polygon fill="#32526E" points="290.793 234.696 278.968 227.868 287.298 223.059 299.124 229.886"/>
      <polygon fill="#32526E" points="304.027 242.337 292.201 235.509 300.532 230.7 312.358 237.527"/>
      <polygon fill="#32526E" points="317.261 249.977 305.435 243.15 313.765 238.34 325.591 245.168"/>
      <polygon fill="#32526E" points="338.942 262.495 318.668 250.79 326.999 245.98 347.272 257.685"/>
      <polygon fill="#32526E" points="352.176 270.135 340.349 263.307 348.68 258.498 360.506 265.325"/>
      <polygon fill="#32526E" points="365.409 277.776 353.583 270.948 361.914 266.139 373.739 272.966"/>
      <polygon fill="#32526E" points="216.124 180.593 204.299 173.765 212.629 168.955 224.455 175.783"/>
      <polygon fill="#32526E" points="229.358 188.233 217.533 181.405 225.863 176.596 237.689 183.424"/>
      <polygon fill="#32526E" points="242.592 195.874 230.766 189.046 239.097 184.237 250.923 191.064"/>
      <polygon fill="#32526E" points="255.826 203.514 244 196.686 252.331 191.877 264.156 198.704"/>
      <polygon fill="#32526E" points="269.06 211.155 257.234 204.327 265.565 199.518 277.39 206.345"/>
      <polygon fill="#32526E" points="282.294 218.795 270.467 211.968 278.798 207.158 290.624 213.986"/>
      <polygon fill="#32526E" points="295.527 226.436 283.701 219.608 292.032 214.799 303.858 221.626"/>
      <polygon fill="#32526E" points="308.761 234.076 296.935 227.248 305.266 222.439 317.092 229.266"/>
      <polygon fill="#32526E" points="321.995 241.717 310.169 234.889 318.499 230.08 330.325 236.907"/>
      <polygon fill="#32526E" points="335.228 249.358 323.403 242.53 331.733 237.72 343.559 244.548"/>
      <polygon fill="#32526E" points="348.462 256.998 336.637 250.17 344.967 245.361 356.793 252.188"/>
      <polygon fill="#32526E" points="361.696 264.638 349.87 257.81 358.201 253.001 370.027 259.829"/>
      <polygon fill="#32526E" points="374.93 272.279 363.104 265.451 371.434 260.642 383.26 267.469"/>
      <polygon fill="#32526E" points="384.668 268.282 366.817 278.589 378.643 285.416 396.494 275.11"/>
      <polygon fill="#32526E" points="221.985 172.983 210.159 166.155 218.49 161.345 230.315 168.173"/>
      <polygon fill="#32526E" points="235.219 180.623 223.393 173.795 231.723 168.986 243.549 175.814"/>
      <polygon fill="#32526E" points="248.452 188.264 236.626 181.436 244.957 176.626 256.783 183.454"/>
      <polygon fill="#32526E" points="261.686 195.905 249.86 189.077 258.191 184.267 270.017 191.095"/>
      <polygon fill="#32526E" points="274.92 203.545 263.094 196.717 271.424 191.907 283.251 198.735"/>
      <polygon fill="#32526E" points="288.153 211.185 276.328 204.357 284.658 199.548 296.484 206.376"/>
      <polygon fill="#32526E" points="301.387 218.826 289.562 211.998 297.892 207.189 309.718 214.016"/>
      <polygon fill="#32526E" points="314.621 226.466 302.795 219.638 311.126 214.829 322.952 221.656"/>
      <polygon fill="#32526E" points="327.855 234.107 316.029 227.279 324.36 222.47 336.185 229.297"/>
      <polygon fill="#32526E" points="341.089 241.747 329.263 234.92 337.594 230.11 349.419 236.938"/>
      <polygon fill="#32526E" points="357.983 251.501 342.496 242.56 350.827 237.75 366.313 246.692"/>
      <polygon fill="#32526E" points="371.216 259.142 359.391 252.314 367.721 247.505 379.547 254.332"/>
      <polygon fill="#32526E" points="384.45 266.782 372.625 259.954 380.955 255.145 392.781 261.972"/>
      <polygon fill="#32526E" points="397.684 274.423 385.859 267.595 394.189 262.786 406.015 269.613"/>
      <polygon fill="#32526E" points="217.145 159.195 205.882 152.693 211.833 149.257 223.096 155.76"/>
      <polygon fill="#32526E" points="229.816 166.511 218.553 160.008 224.504 156.573 235.766 163.075"/>
      <polygon fill="#32526E" points="242.486 173.826 231.224 167.323 237.174 163.888 248.437 170.391"/>
      <polygon fill="#32526E" points="255.157 181.141 243.894 174.639 249.844 171.203 261.108 177.706"/>
      <polygon fill="#32526E" points="267.828 188.457 256.565 181.954 262.515 178.519 273.778 185.021"/>
      <polygon fill="#32526E" points="280.499 195.772 269.235 189.27 275.186 185.834 286.449 192.337"/>
      <polygon fill="#32526E" points="293.169 203.088 281.906 196.585 287.857 193.15 299.119 199.652"/>
      <polygon fill="#32526E" points="305.839 210.403 294.577 203.9 300.527 200.465 311.79 206.968"/>
      <polygon fill="#32526E" points="318.51 217.718 307.247 211.216 313.198 207.781 324.461 214.283"/>
      <polygon fill="#32526E" points="331.181 225.034 319.918 218.531 325.868 215.096 337.131 221.599"/>
      <polygon fill="#32526E" points="343.852 232.349 332.589 225.846 338.539 222.411 349.802 228.914"/>
      <polygon fill="#32526E" points="356.522 239.664 345.259 233.162 351.21 229.727 362.473 236.229"/>
      <polygon fill="#32526E" points="369.193 246.98 357.93 240.477 363.88 237.042 375.143 243.545"/>
      <polygon fill="#32526E" points="381.863 254.295 370.601 247.793 376.551 244.357 387.814 250.86"/>
      <polygon fill="#32526E" points="394.534 261.611 383.271 255.108 389.222 251.673 400.484 258.175"/>
      <polygon fill="#32526E" points="407.205 268.926 395.942 262.424 401.892 258.988 413.155 265.491"/>
      <path fill="#E6E6E6" d="M242.390381,271.290416 L189.117114,240.532876 C188.193256,239.999567 188.308993,239.068061 189.376121,238.452156 L216.473409,222.807241 C217.540026,222.191336 219.154229,222.124035 220.077577,222.657853 L273.351353,253.414884 C274.274702,253.948192 274.159474,254.879698 273.092347,255.496114 L245.994549,271.140518 C244.928442,271.756424 243.314239,271.823725 242.390381,271.290416"/>
      <path fill="#32526E" d="M415.001843,262.778226 L394.06106,250.687514 C393.273333,250.233233 393.372245,249.438878 394.281317,248.914237 L395.511089,248.204008 C396.420671,247.679367 397.795751,247.621753 398.582968,248.076544 L419.524261,260.167256 C420.311478,260.622047 420.213075,261.415892 419.304003,261.940534 L418.073722,262.650762 C417.16465,263.175403 415.78957,263.233017 415.001843,262.778226"/>
      <polygon fill="#BCBEC0" points="230.305 146.815 217.446 139.391 222.796 136.303 235.655 143.727"/>
      <polygon fill="#BCBEC0" points="417.572 254.934 404.713 247.51 410.063 244.422 422.921 251.845"/>
      <path fill="#BCBEC0" d="M423.259615,126.652275 L210.420456,3.76946334 C206.058642,1.25128725 202.522795,3.9244594 202.522795,9.7398707 L202.522795,115.446162 C202.522795,121.262084 206.058642,128.017668 210.420456,130.535844 L423.259615,253.418657 C427.621428,255.936833 431.157276,253.26417 431.157276,247.448249 L431.157276,141.741957 C431.157276,135.926036 427.621428,129.170452 423.259615,126.652275"/>
      <path fill="#FFFFFF" d="M209.273638,112.516737 L209.273638,20.4648841 C209.273638,15.1838013 212.484707,12.7558696 216.445265,15.0430812 L417.2345,130.968406 C421.195057,133.255617 424.406637,139.390708 424.406637,144.672301 L424.406637,236.723644 C424.406637,242.005236 421.195567,244.432148 417.23501,242.145447 L216.444755,126.219102 C212.484707,123.93291 209.273638,117.79782 209.273638,112.516737"/>
      <polygon fill="#B3B3B3" points="259.102 125.292 258.798 125.116 258.798 66.785 259.102 66.961"/>
      <polygon fill="#B3B3B3" points="267.155 129.941 266.851 129.766 266.851 71.435 267.155 71.61"/>
      <polygon fill="#B3B3B3" points="275.208 134.591 274.904 134.415 274.904 76.084 275.208 76.259"/>
      <polygon fill="#B3B3B3" points="283.262 139.24 282.958 139.065 282.958 80.734 283.262 80.909"/>
      <polygon fill="#B3B3B3" points="291.315 143.89 291.011 143.715 291.011 85.383 291.315 85.558"/>
      <polygon fill="#B3B3B3" points="299.368 148.539 299.064 148.364 299.064 90.033 299.368 90.208"/>
      <polygon fill="#B3B3B3" points="307.421 153.189 307.117 153.014 307.117 94.683 307.421 94.858"/>
      <polygon fill="#B3B3B3" points="312.277 102.821 253.942 69.141 253.942 68.837 312.277 102.517"/>
      <polygon fill="#B3B3B3" points="312.277 110.873 253.942 77.194 253.942 76.89 312.277 110.569"/>
      <polygon fill="#B3B3B3" points="312.277 118.926 253.942 85.246 253.942 84.943 312.277 118.622"/>
      <polygon fill="#B3B3B3" points="312.277 126.979 253.942 93.299 253.942 92.995 312.277 126.675"/>
      <polygon fill="#B3B3B3" points="312.277 135.032 253.942 101.352 253.942 101.048 312.277 134.728"/>
      <polygon fill="#B3B3B3" points="312.277 143.084 253.942 109.405 253.942 109.101 312.277 142.781"/>
      <polygon fill="#B3B3B3" points="312.277 151.137 253.942 117.458 253.942 117.154 312.277 150.833"/>
      <polygon fill="#32526E" points="315.159 159.719 251.91 123.203 251.91 59.586 253.974 60.778 253.974 122.331 315.159 157.657"/>
      <polygon fill="#32526E" points="247.471 60.609 252.942 54.292 258.413 66.926"/>
      <polygon fill="#32526E" points="313.383 152.192 322.858 163.133 313.383 163.133"/>
      <polygon fill="#E74B3C" points="292.25 137.274 278.176 100.827 263.875 107.208 262.891 105.678 278.546 98.694 291.982 133.49 306.165 97.989 307.473 99.169"/>
      <polygon fill="#3497DA" points="263.756 118.612 263.011 117.026 278.099 116.013 291.782 121.213 306.339 115.421 307.299 116.961 292.449 122.868 278.623 117.614"/>
      <path fill="#2ECB70" d="M266.09764,119.386325 C266.09764,120.8853 264.882145,121.398725 263.38317,120.5335 C261.883685,119.667766 260.668699,117.750709 260.668699,116.251734 C260.668699,114.752759 261.883685,114.238825 263.38317,115.104559 C264.882145,115.970294 266.09764,117.88735 266.09764,119.386325"/>
      <path fill="#E74B3C" d="M281.075154,118.380839 C281.075154,119.879814 279.860168,120.393749 278.361193,119.528014 C276.861198,118.66228 275.646213,116.745223 275.646213,115.246248 C275.646213,113.747273 276.861198,113.233339 278.361193,114.099073 C279.860168,114.964808 281.075154,116.881864 281.075154,118.380839"/>
      <path fill="#2ECB70" d="M294.830289,123.607827 C294.830289,125.106802 293.614794,125.620736 292.115819,124.755001 C290.616334,123.889267 289.401348,121.97221 289.401348,120.473235 C289.401348,118.97426 290.616334,118.460836 292.115819,119.32606 C293.614794,120.191795 294.830289,122.108852 294.830289,123.607827"/>
      <path fill="#F1C40F" d="M309.53345,117.758204 C309.53345,119.257179 308.317954,119.771113 306.818979,118.905379 C305.319494,118.039644 304.104509,116.122588 304.104509,114.623613 C304.104509,113.124638 305.319494,112.610703 306.818979,113.476438 C308.317954,114.342172 309.53345,116.259229 309.53345,117.758204"/>
      <path fill="#2ECB70" d="M266.09764,108.01043 C266.09764,109.509406 264.882145,110.02334 263.38317,109.157605 C261.883685,108.291871 260.668699,106.374814 260.668699,104.875839 C260.668699,103.376864 261.883685,102.86344 263.38317,103.728664 C264.882145,104.594399 266.09764,106.511455 266.09764,108.01043"/>
      <path fill="#3497DA" d="M281.075154,101.327806 C281.075154,102.826781 279.860168,103.340715 278.361193,102.474981 C276.861198,101.609756 275.646213,99.6921898 275.646213,98.1937246 C275.646213,96.6942397 276.861198,96.1808152 278.361193,97.0465498 C279.860168,97.9117745 281.075154,99.828831 281.075154,101.327806"/>
      <path fill="#2ECB70" d="M294.830289,136.949214 C294.830289,138.448189 293.614794,138.962124 292.115819,138.096389 C290.616334,137.230654 289.401348,135.313598 289.401348,133.814623 C289.401348,132.315648 290.616334,131.801714 292.115819,132.667448 C293.614794,133.533183 294.830289,135.450239 294.830289,136.949214"/>
      <path fill="#F1C40F" d="M309.53345,100.146267 C309.53345,101.645242 308.317954,102.159176 306.818979,101.293442 C305.319494,100.427707 304.104509,98.5106507 304.104509,97.0116757 C304.104509,95.5127007 305.319494,94.9992762 306.818979,95.8650108 C308.317954,96.7302355 309.53345,98.647292 309.53345,100.146267"/>
      <polygon fill="#F1C40F" points="318.236 122.271 318.236 119.138 384.619 157.464 384.619 160.597"/>
      <polygon fill="#F1C40F" points="318.236 127.136 318.236 124.003 384.619 162.329 384.619 165.462"/>
      <polygon fill="#F1C40F" points="318.236 132.002 318.236 128.869 384.619 167.195 384.619 170.328"/>
      <polygon fill="#F1C40F" points="318.236 136.868 318.236 133.735 384.619 172.061 384.619 175.194"/>
      <polygon fill="#F1C40F" points="318.236 141.733 318.236 138.6 384.619 176.926 384.619 180.059"/>
      <polygon fill="#E74B3C" points="318.236 122.271 318.236 119.138 359.056 142.705 359.056 145.838"/>
      <polygon fill="#E74B3C" points="318.236 127.136 318.236 124.003 348.282 141.35 348.282 144.483"/>
      <polygon fill="#E74B3C" points="318.236 132.002 318.236 128.869 345.826 144.798 345.826 147.931"/>
      <polygon fill="#E74B3C" points="318.236 136.868 318.236 133.735 363.476 159.854 363.476 162.987"/>
      <polygon fill="#E74B3C" points="318.236 141.733 318.236 138.6 376.071 171.991 376.071 175.124"/>
      <polygon fill="#85C1E9" points="321.959 116.494 318.236 114.344 318.236 106.262 321.959 108.412"/>
      <polygon fill="#85C1E9" points="326.772 119.273 323.049 117.123 323.049 100.233 326.772 102.383"/>
      <polygon fill="#85C1E9" points="331.585 122.051 327.862 119.902 327.862 95.475 331.585 97.624"/>
      <polygon fill="#85C1E9" points="336.398 124.83 332.675 122.681 332.675 88.265 336.398 90.414"/>
      <polygon fill="#85C1E9" points="341.211 127.609 337.488 125.459 337.488 105.543 341.211 107.693"/>
      <polygon fill="#85C1E9" points="350.837 133.167 347.114 131.017 347.114 103.866 350.837 106.016"/>
      <polygon fill="#85C1E9" points="355.65 135.945 351.927 133.796 351.927 98.563 355.65 100.712"/>
      <polygon fill="#85C1E9" points="360.464 138.724 356.74 136.575 356.74 125.587 360.464 127.736"/>
      <polygon fill="#85C1E9" points="365.277 141.503 361.553 139.353 361.553 120.92 365.277 123.069"/>
      <polygon fill="#85C1E9" points="374.902 147.061 371.179 144.911 371.179 126.023 374.902 128.173"/>
      <polygon fill="#85C1E9" points="379.716 149.839 375.992 147.69 375.992 119.631 379.716 121.78"/>
      <polygon fill="#85C1E9" points="384.528 152.618 380.805 150.468 380.805 133.261 384.528 135.41"/>
      <polygon fill="#3497DA" points="321.959 116.494 318.236 114.344 318.236 111.067 321.959 113.217"/>
      <polygon fill="#3497DA" points="326.772 119.273 323.049 117.123 323.049 110.275 326.772 112.425"/>
      <polygon fill="#3497DA" points="331.585 122.051 327.862 119.902 327.862 109.998 331.585 112.148"/>
      <polygon fill="#3497DA" points="336.398 124.83 332.675 122.681 332.675 108.727 336.398 110.877"/>
      <polygon fill="#3497DA" points="341.211 127.609 337.488 125.459 337.488 117.385 341.211 119.534"/>
      <polygon fill="#3497DA" points="350.837 133.167 347.114 131.017 347.114 120.009 350.837 122.159"/>
      <polygon fill="#3497DA" points="355.65 135.945 351.927 133.796 351.927 119.511 355.65 121.661"/>
      <polygon fill="#3497DA" points="360.464 138.724 356.74 136.575 356.74 132.12 360.464 134.27"/>
      <polygon fill="#3497DA" points="365.277 141.503 361.553 139.353 361.553 131.88 365.277 134.029"/>
      <polygon fill="#3497DA" points="374.902 147.061 371.179 144.911 371.179 137.253 374.902 139.403"/>
      <polygon fill="#3497DA" points="379.716 149.839 375.992 147.69 375.992 136.314 379.716 138.464"/>
      <polygon fill="#3497DA" points="384.528 152.618 380.805 150.468 380.805 143.492 384.528 145.642"/>
      <polygon fill="#2ECB70" points="330.475 186.778 325.115 183.684 325.115 177.524 330.475 180.618"/>
      <polygon fill="#3497DA" points="337.813 191.015 332.453 187.92 332.453 175.164 337.813 178.258"/>
      <polygon fill="#E74B3C" points="345.151 195.251 339.792 192.157 339.792 176.01 345.151 179.105"/>
      <polygon fill="#F1C40F" points="352.49 199.488 347.13 196.394 347.13 175.99 352.49 179.084"/>
      <polygon fill="#32526E" points="325.746 173.846 324.484 171.614 334.72 168.94 342.084 172.186 351.896 170.403 353.083 172.651 342.86 174.509 335.547 171.285"/>
      <polygon fill="#E74B3C" points="335.937 162.613 322.076 154.611 322.076 150.337 335.937 158.339"/>
      <path fill="#E74B3C" d="M371.744279,190.307525 L383.245088,195.180723 C383.321566,195.771646 383.360315,196.351351 383.360315,196.907094 C383.360315,199.045428 382.783669,200.807488 381.694108,202.003609 C380.658591,203.139567 379.192247,203.739157 377.447012,203.742216 L371.744279,190.307525 Z"/>
      <path fill="#F1C40F" d="M365.604089,196.904799 C363.858344,194.886282 362.392,192.592952 361.356993,190.261893 C360.266413,187.806939 359.690276,185.379517 359.690276,183.241693 C359.690276,180.858119 360.395916,178.968085 361.730208,177.775533 C363.006886,176.634476 364.776084,176.194981 366.853235,176.500894 L371.371574,189.976374 L365.604089,196.904799 Z"/>
      <path fill="#2ECB70" d="M371.525194,201.908725 C369.538287,200.76104 367.577383,199.128993 365.845404,197.180835 L371.525194,190.35744 L377.205493,203.738596 C375.473004,203.687101 373.51261,203.0559 371.525194,201.908725"/>
      <path fill="#3497DA" d="M367.109285,176.542447 C368.512917,176.787178 369.997616,177.358216 371.525143,178.240266 C374.372176,179.88404 377.123356,182.497559 379.271886,185.600029 C381.364333,188.620923 382.756239,191.91051 383.202872,194.882458 L371.611818,189.97051 L367.109285,176.542447 Z"/>
      <polygon fill="#E74B3C" points="302.703 81.538 263.213 58.738 263.213 54.024 302.703 76.823"/>
      <polygon fill="#BCBEC0" points="291.404 153.4 251.914 130.601 251.914 127.759 291.404 150.559"/>
      <polygon fill="#BCBEC0" points="377.972 213.458 358.081 201.974 358.081 199.132 377.972 210.617"/>
      <polygon fill="#BCBEC0" points="297.33 162.684 251.914 136.463 251.914 133.622 297.33 159.843"/>
      <path fill="#BCBEC0" d="M431.156868 260.614298L431.156868 268.262129C431.156868 266.926308 430.427775 265.640962 428.944095 264.62686 430.412989 263.382813 431.156868 261.970513 431.156868 260.614298M101.474339 197.733773C100.011053 198.977311 99.2666644 200.39012 99.2666644 201.746336L99.2666644 194.098504C99.2666644 195.434325 99.9906591 196.719161 101.474339 197.733773"/>
      <polygon fill="#263E53" points="93.188 380.314 97.092 380.314 97.092 372.666 93.188 372.666"/>
      <path fill="#000000" d="M188.355645,337.302381 C177.516118,333.00175 168.668087,331.082654 168.668087,322.91222 C168.668087,309.738575 187.17431,299.059143 209.998499,299.059143 C232.815041,299.059143 251.320754,309.738575 251.320754,322.91222 C251.320754,329.597955 237.073863,336.120026 221.487582,339.715526 C206.341816,343.210076 191.632996,338.603022 188.355645,337.302381 M243.783051,303.40872 C243.759598,303.401072 237.82692,296.476215 237.811624,296.468057 C224.623193,288.852856 203.630405,288.395516 188.812476,293.642948 C182.820145,295.764457 179.901222,298.211253 174.568134,301.29078 C173.406173,301.96175 174.415177,304.74607 173.399035,305.465986 C161.368486,313.99077 159.567167,325.73325 168.005784,335.221151 C167.935424,335.252252 167.865574,335.283353 167.802862,335.322612 C165.433564,336.694633 165.347398,338.89262 167.537737,340.327353 C166.867277,340.545061 166.228428,340.818344 165.667078,341.145671 L158.00446,345.573256 L157.981007,345.55745 C156.570237,344.74729 154.30138,344.74729 152.898767,345.55745 L140.964071,352.448657 L140.956423,352.448657 L130.822536,358.302307 L96.8585151,377.915427 C91.9633929,380.736967 91.9633929,385.34453 96.8585151,388.16607 C96.8819685,388.181876 96.897774,388.189524 96.9135795,388.197172 C99.27523,389.546249 102.409311,390.286559 105.737648,390.286559 C109.105243,390.286559 112.262268,389.538091 114.624428,388.16607 L170.663661,355.816252 C172.066783,355.005582 172.066783,353.695763 170.663661,352.885093 L170.640208,352.869287 L178.295687,348.442212 C178.872334,348.114375 179.339871,347.747789 179.721753,347.365907 C182.208318,348.628819 186.020507,348.574265 188.390315,347.210402 C188.452518,347.171143 188.507072,347.131884 188.569275,347.093135 C206.39739,352.378296 228.800439,350.710049 243.727987,342.088904 C262.226562,331.408961 262.241858,314.103957 243.783051,303.40872" style="mix-blend-mode:multiply" opacity=".4"/>
      <path fill="#263E53" d="M188.355645,334.302381 C177.516118,330.00175 168.668087,328.082654 168.668087,319.91222 C168.668087,306.738575 187.17431,296.059143 209.998499,296.059143 C232.815041,296.059143 251.320754,306.738575 251.320754,319.91222 C251.320754,326.597955 237.073863,333.120026 221.487582,336.715526 C206.341816,340.210076 191.632996,335.603022 188.355645,334.302381 M243.783051,300.40872 C243.759598,300.401072 237.82692,293.476215 237.811624,293.468057 C224.623193,285.852856 203.630405,285.395516 188.812476,290.642948 C182.820145,292.764457 179.901222,295.211253 174.568134,298.29078 C173.406173,298.96175 174.415177,301.74607 173.399035,302.465986 C161.368486,310.99077 159.567167,322.73325 168.005784,332.221151 C167.935424,332.252252 167.865574,332.283353 167.802862,332.322612 C165.433564,333.694633 165.347398,335.89262 167.537737,337.327353 C166.867277,337.545061 166.228428,337.818344 165.667078,338.145671 L158.00446,342.573256 L157.981007,342.55745 C156.570237,341.74729 154.30138,341.74729 152.898767,342.55745 L140.964071,349.448657 L140.956423,349.448657 L130.822536,355.302307 L96.8585151,374.915427 C91.9633929,377.736967 91.9633929,382.34453 96.8585151,385.16607 C96.8819685,385.181876 96.897774,385.189524 96.9135795,385.197172 C99.27523,386.546249 102.409311,387.286559 105.737648,387.286559 C109.105243,387.286559 112.262268,386.538091 114.624428,385.16607 L170.663661,352.816252 C172.066783,352.005582 172.066783,350.695763 170.663661,349.885093 L170.640208,349.869287 L178.295687,345.442212 C178.872334,345.114375 179.339871,344.747789 179.721753,344.365907 C182.208318,345.628819 186.020507,345.574265 188.390315,344.210402 C188.452518,344.171143 188.507072,344.131884 188.569275,344.093135 C206.39739,349.378296 228.800439,347.710049 243.727987,339.088904 C262.226562,328.408961 262.241858,311.103957 243.783051,300.40872"/>
      <path fill="#32526E" d="M170.663559,345.167145 L114.625346,377.521043 C112.260127,378.886946 109.106161,379.639492 105.742135,379.638473 C102.40615,379.638473 99.2771674,378.896633 96.9175564,377.551634 C96.8981819,377.540417 96.8793172,377.53124 96.8604526,377.520023 C91.9632909,374.692875 91.9632909,370.091429 96.8599427,367.264281 L152.896626,334.909873 C154.298729,334.100223 156.574723,334.100223 157.978355,334.910383 L170.663559,342.234457 C172.067191,343.044617 172.065661,344.358005 170.663559,345.167145"/>
      <path fill="#A6EDE7" d="M251.322284,312.26755 C251.322794,325.444764 232.820649,336.127255 209.99646,336.126745 C187.172781,336.126745 168.670636,325.444254 168.670126,312.26653 C168.669616,299.089316 187.171761,288.407334 209.99544,288.407334 C232.819629,288.407334 251.322284,299.089825 251.322284,312.26755"/>
      <path fill="#32526E" d="M182.846096,327.941118 C182.826212,327.929901 182.806837,327.922253 182.786953,327.910527 C167.648325,319.170584 167.648325,304.997113 182.785933,296.253602 C197.924052,287.513659 222.473082,287.513659 237.61171,296.254111 L237.670853,296.288272 C252.756456,305.031783 252.737082,319.178742 237.618848,327.911037 C222.493986,336.643331 197.991352,336.650979 182.846096,327.941118 M188.566674,336.445507 C206.39377,341.72659 228.800898,340.060382 243.728446,331.442295 C262.227021,320.761843 262.246396,303.45327 243.779941,292.757013 C243.760057,292.749875 243.74731,292.738148 243.727426,292.726931 C225.207946,282.034753 195.188677,282.034243 176.670217,292.726422 C161.743179,301.344508 158.856887,314.281071 168.004714,324.574033 C167.938433,324.607683 167.866033,324.638274 167.80689,324.672435 C165.434532,326.041906 165.348877,328.245502 167.536666,329.679725 L179.722722,336.71522 C182.207247,337.978642 186.023006,337.929186 188.389245,336.559205 C188.454506,336.521475 188.507531,336.483236 188.566674,336.445507"/>
      <path fill="#263E53" d="M170.641176,342.221048 L158.00084,334.922977 L165.664987,330.497941 C166.231946,330.170614 166.871305,329.900391 167.536666,329.679623 L179.722722,336.715119 C179.34033,337.09955 178.872793,337.465116 178.299205,337.795502 L170.641176,342.221048 Z"/>
      <polygon fill="#E74B3C" points="130.826 347.653 148.592 357.91 158.723 352.061 140.956 341.804"/>
      <path fill="#A6EDE7" d="M196.178255 332.93709C191.321882 331.868942 186.769383 330.193048 182.848594 327.940506 187.424547 329.468033 191.430991 331.775639 196.178255 332.93709M242.271381 324.697775C242.863833 324.190978 243.425184 323.653081 243.970729 323.099378 252.950813 313.916371 248.086282 303.011583 238.904295 297.032508 251.173457 304.788429 252.249252 316.294337 242.271381 324.697775"/>
      <path fill="#000000" d="M242.271381,324.697775 C242.863833,324.190978 243.425184,323.653081 243.970729,323.099378 C252.950813,313.916371 248.086282,303.011583 238.904295,297.032508 C251.173457,304.788429 252.249252,316.294337 242.271381,324.697775"/>
      <polygon fill="#AD382D" points="158.725 352.063 158.725 359.7 158.719 359.705 148.594 365.559 148.594 357.911"/>
      <path fill="#263E53" d="M257.615838 312.084817L257.615838 319.737748C257.615838 318.458011 257.462881 317.178273 257.152379 315.903635 257.462881 314.634095 257.615838 313.359456 257.615838 312.084817M163.251994 315.898791C162.940982 317.167821 162.788026 318.44246 162.788026 319.722707L162.788026 312.074875C162.788026 313.354612 162.940982 314.629251 163.251994 315.898791"/>
      <polygon fill="#263E53" points="169.597 351.345 171.716 351.345 171.716 347.715 169.597 347.715"/>
      <path fill="#263E53" d="M167.534729,329.679827 C167.126845,329.812899 166.729157,329.970445 166.351864,330.143796 C163.975938,326.814439 162.787975,323.271454 162.787975,319.72286 L162.787975,312.075028 C162.787975,312.319249 162.793073,312.558881 162.808369,312.803612 C162.818566,313.063638 162.833862,313.323664 162.859355,313.5842 C162.869552,313.665267 162.87465,313.746844 162.889946,313.83352 C162.91034,314.04256 162.935833,314.2567 162.966424,314.46574 C162.971523,314.476447 162.971523,314.481036 162.971523,314.486135 C163.007213,314.71557 163.048001,314.939906 163.093888,315.169341 C163.139775,315.414581 163.190761,315.653704 163.251943,315.898944 C163.975938,318.891286 165.561588,321.822955 168.003796,324.571075 C167.937515,324.606765 167.866135,324.637357 167.804952,324.673556 C165.434125,326.044558 165.347449,328.247133 167.534729,329.679827"/>
      <path fill="#32526E" d="M167.534729,329.679827 C167.126845,329.812899 166.729157,329.970445 166.351864,330.143796 C163.975938,326.814439 162.787975,323.271454 162.787975,319.72286 L162.787975,312.075028 C162.787975,312.319249 162.793073,312.558881 162.808369,312.803612 C162.818566,313.063638 162.833862,313.323664 162.859355,313.5842 C162.869552,313.665267 162.87465,313.746844 162.889946,313.83352 C162.91034,314.04256 162.935833,314.2567 162.966424,314.46574 C162.971523,314.476447 162.971523,314.481036 162.971523,314.486135 C163.007213,314.71557 163.048001,314.939906 163.093888,315.169341 C163.139775,315.414581 163.190761,315.653704 163.251943,315.898944 C163.975938,318.891286 165.561588,321.822955 168.003796,324.571075 C167.937515,324.606765 167.866135,324.637357 167.804952,324.673556 C165.434125,326.044558 165.347449,328.247133 167.534729,329.679827"/>
      <path fill="#FFFFFF" d="M242.766807,316.105894 C242.766807,316.501542 242.746413,316.89719 242.701546,317.28417 C239.208526,308.489164 225.750891,301.915088 209.734292,301.915088 C200.767464,301.915088 192.327317,303.936664 185.965341,307.608643 C181.335343,310.281816 178.184947,313.608112 176.758371,317.25154 C176.717583,316.872207 176.697188,316.489306 176.697188,316.105894 C176.697188,305.57483 191.487585,297.032712 209.734292,297.032712 C227.976411,297.036791 242.766807,305.57483 242.766807,316.105894"/>
    </g>
    <g transform="translate(246 33)">
      <polygon fill="#B21F24" points="10.499 0 0 6.329 0 14.791 10.499 8.462"/>
      <polygon fill="#ED1C24" points="10.499 0 10.499 8.462 20.999 14.791 20.999 6.329"/>
      <polygon fill="#ED1C24" points="0 27.634 10.499 33.963 10.499 25.502 0 19.173"/>
      <polygon fill="#ED1C24" points="0 14.825 20.999 27.482 20.999 19.021 0 6.363"/>
      <polygon fill="#B21F24" points="10.499 25.502 10.499 33.963 20.999 27.635 20.999 19.173"/>
    </g>
  </g>
</svg>
